<?xml version="1.0" standalone="no"?><!DOCTYPE svg PUBLIC "-//W3C//DTD SVG 1.1//EN" "http://www.w3.org/Graphics/SVG/1.1/DTD/svg11.dtd"><svg t="1714286457833" class="icon" viewBox="0 0 1024 1024" version="1.1" xmlns="http://www.w3.org/2000/svg" p-id="12848" xmlns:xlink="http://www.w3.org/1999/xlink" width="200" height="200"><path d="M0 0m192 0l640 0q192 0 192 192l0 640q0 192-192 192l-640 0q-192 0-192-192l0-640q0-192 192-192Z" fill="#4C7CEE" p-id="12849"></path><path d="M464.096 565.184l0.192 0.256-26.656 64.352a137.92 137.92 0 0 1-55.328-69.248l68.768-11.648 0.096 0.128a11.744 11.744 0 0 1 12.896 16.16h0.032z m-22.208-56.768a11.744 11.744 0 0 0 4.608-20.16l0.064-0.32-52.288-46.752a137.152 137.152 0 0 0-19.488 86.784l67.04-19.328 0.064-0.224z m30.528-52.8a11.744 11.744 0 0 0 18.656-8.992l0.256-0.128 4-69.888c-30.272 3.52-58.56 17.088-80.256 38.464l57.248 40.64 0.096-0.096z m20.256 73.312l19.296 9.312 19.264-9.248 4.8-20.8-13.344-16.64h-21.44l-13.344 16.64 4.8 20.8v-0.064z m40-82.528a11.744 11.744 0 0 0 18.688 8.96l0.192 0.096 56.928-40.352a138.336 138.336 0 0 0-79.808-38.464l3.968 69.76h0.032z m290.048 159.2l-153.952 191.488a42.656 42.656 0 0 1-33.28 15.84l-246.976 0.096c-12.896 0-25.12-5.824-33.248-15.904L201.28 605.664a42.24 42.24 0 0 1-8.192-35.744l54.944-238.784c2.88-12.544 11.328-23.04 23.008-28.64l222.464-106.304c11.68-5.6 25.248-5.6 36.928 0l222.528 106.24c11.68 5.6 20.16 16.128 23.04 28.64l54.976 238.816c2.88 12.512-0.16 25.664-8.224 35.712z m-87.68-54.848c-1.152-0.256-2.784-0.704-3.904-0.896-4.64-0.896-8.384-0.672-12.768-1.024-9.344-0.96-17.024-1.792-23.872-3.936-2.784-1.088-4.8-4.416-5.76-5.76l-5.344-1.6c2.848-20.704 1.92-41.792-2.816-62.176a172.416 172.416 0 0 0-24.96-57.664l4.736-4.256c0.192-2.4 0-4.864 2.496-7.52 5.248-4.928 11.84-9.024 19.84-13.92 3.776-2.24 7.264-3.648 11.04-6.464 0.864-0.64 2.016-1.632 2.944-2.368 6.4-5.088 7.872-13.856 3.264-19.616-4.576-5.76-13.472-6.304-19.84-1.216-0.928 0.736-2.144 1.664-2.976 2.368-3.584 3.072-5.792 6.112-8.8 9.312-6.56 6.688-12 12.224-17.952 16.256-2.56 1.504-6.4 0.96-8.064 0.864l-5.088 3.616a174.528 174.528 0 0 0-110.56-53.44l-0.32-5.92c-1.728-1.664-3.808-3.072-4.352-6.656-0.576-7.168 0.416-14.88 1.536-24.16 0.608-4.32 1.6-7.936 1.792-12.64v-3.808c0-8.16-5.984-14.784-13.344-14.784-7.36 0-13.312 6.624-13.312 14.784v3.808c0.192 4.704 1.216 8.32 1.824 12.64 1.12 9.28 2.08 16.992 1.472 24.16a14.528 14.528 0 0 1-4.32 6.88l-0.32 5.632a171.296 171.296 0 0 0-111.072 53.44l-4.8-3.424c-2.4 0.32-4.8 1.056-7.936-0.768-5.952-4-11.392-9.568-17.92-16.224-3.04-3.2-5.216-6.24-8.8-9.28a71.776 71.776 0 0 0-2.944-2.368 15.84 15.84 0 0 0-9.28-3.52 12.8 12.8 0 0 0-10.624 4.672c-4.576 5.76-3.104 14.56 3.296 19.68l0.16 0.128 2.784 2.208c3.776 2.784 7.264 4.224 11.04 6.464 8 4.928 14.56 8.992 19.84 13.92 2.016 2.176 2.368 6.016 2.656 7.68l4.256 3.808a172.32 172.32 0 0 0-27.2 120.16l-5.536 1.6c-1.472 1.92-3.552 4.896-5.76 5.76-6.848 2.176-14.56 2.944-23.84 3.936-4.384 0.384-8.16 0.16-12.8 1.056l-3.552 0.8-0.128 0.032-0.16 0.064c-7.872 1.92-12.928 9.12-11.296 16.224 1.6 7.104 9.28 11.424 17.216 9.728l0.16-0.032 0.288-0.064 3.424-0.8c4.544-1.216 7.84-3.008 11.968-4.576 8.8-3.136 16.096-5.76 23.2-6.816 2.976-0.256 6.112 1.824 7.68 2.688l5.76-0.992a173.344 173.344 0 0 0 76.8 95.904l-2.4 5.792c0.896 2.24 1.856 5.312 1.184 7.52-2.56 6.72-7.04 13.792-12.064 21.696-2.4 3.616-4.928 6.464-7.136 10.624-0.544 0.992-1.184 2.56-1.696 3.584-3.424 7.36-0.928 15.776 5.664 18.944 6.624 3.2 14.848-0.192 18.4-7.52v-0.064c0.544-1.024 1.248-2.4 1.664-3.392 1.856-4.32 2.496-8 3.84-12.192 3.52-8.864 5.44-18.144 10.304-23.936 1.344-1.6 3.488-2.176 5.76-2.784l3.008-5.472a172.096 172.096 0 0 0 122.88 0.32l2.848 5.12c2.304 0.736 4.8 1.12 6.816 4.128 3.648 6.176 6.112 13.504 9.12 22.4 1.344 4.16 1.984 7.872 3.872 12.16 0.448 1.024 1.152 2.432 1.664 3.456 3.52 7.36 11.776 10.72 18.4 7.52 6.592-3.136 9.088-11.584 5.664-18.912-0.512-1.056-1.184-2.56-1.728-3.584-2.208-4.16-4.704-6.976-7.136-10.624-5.056-7.872-9.216-14.4-11.84-21.12-1.056-3.488 0.224-5.632 1.024-7.872-0.48-0.576-1.568-3.84-2.208-5.376a173.312 173.312 0 0 0 76.8-96.576c1.728 0.256 4.704 0.8 5.696 0.992 1.984-1.312 3.84-3.04 7.456-2.752 7.104 1.024 14.4 3.68 23.2 6.816 4.096 1.6 7.36 3.424 11.936 4.608 0.96 0.288 2.368 0.512 3.488 0.768l0.224 0.064h0.192c7.936 1.728 15.584-2.56 17.216-9.696 1.6-7.104-3.424-14.336-11.296-16.224z m-105.696-109.536l-52.032 46.56v0.128a11.744 11.744 0 0 0 4.64 20.16l0.064 0.288 67.36 19.424a138.88 138.88 0 0 0-20.064-86.592z m-107.04 141.984a11.744 11.744 0 1 0-20.704 0l-0.032 0.032-33.824 61.12a137.696 137.696 0 0 0 88.704 0.096l-33.856-61.248h-0.288z m50.368-34.464a11.744 11.744 0 0 0-12.928 16.192l-0.064 0.128 26.912 64.992a137.344 137.344 0 0 0 55.52-69.728l-69.344-11.712-0.096 0.128z" fill="#FFFFFF" p-id="12850"></path></svg>