<?xml version="1.0" standalone="no"?><!DOCTYPE svg PUBLIC "-//W3C//DTD SVG 1.1//EN" "http://www.w3.org/Graphics/SVG/1.1/DTD/svg11.dtd"><svg t="1714711828357" class="icon" viewBox="0 0 1025 1024" version="1.1" xmlns="http://www.w3.org/2000/svg" p-id="11336" xmlns:xlink="http://www.w3.org/1999/xlink" width="200.1953125" height="200"><path d="M915.533 754.003c59.57 0 107.736-48.24 107.736-107.735V107.736C1023.27 48.166 975.03 0 915.533 0H107.736C48.166 0 0 48.24 0 107.736v538.532c0 59.495 48.24 107.735 107.736 107.735H457.84v80.765h-94.287a40.346 40.346 0 0 0-40.42 40.42v13.448H40.42a40.346 40.346 0 1 0 0 80.765h282.642v13.449c0 22.366 18.053 40.42 40.419 40.42h269.266a40.346 40.346 0 0 0 40.419-40.42v-13.449h309.612a40.346 40.346 0 1 0 0-80.765H673.238v-13.449a40.346 40.346 0 0 0-40.42-40.419h-94.286v-80.765h377.001zM273.067 537.947a40.127 40.127 0 0 1-30.698 14.034 40.2 40.2 0 0 1-30.698-66.513L373.2 296.894a40.2 40.2 0 0 1 54.672-6.14L600.22 417.056 777.685 215.91a40.492 40.492 0 0 1 60.592 53.575l-201.95 228.92a40.42 40.42 0 0 1-54.087 5.994L410.33 378.317 272.92 538.02z" fill="#1296DB" p-id="11337"></path></svg>