<?xml version="1.0" standalone="no"?><!DOCTYPE svg PUBLIC "-//W3C//DTD SVG 1.1//EN" "http://www.w3.org/Graphics/SVG/1.1/DTD/svg11.dtd"><svg t="1714711668406" class="icon" viewBox="0 0 1024 1024" version="1.1" xmlns="http://www.w3.org/2000/svg" p-id="3730" xmlns:xlink="http://www.w3.org/1999/xlink" width="200" height="200"><path d="M0 1.597504h1022.402496v1022.402496H0z" fill-opacity="0" p-id="3731"></path><path d="M894.602184 752.424337H175.725429v127.800312h718.876755z" fill="#40A9FF" p-id="3732"></path><path d="M801.946958 618.234009L686.926677 568.711388c-14.377535-4.792512-28.75507 1.597504-35.145086 15.975039-4.792512 14.377535 1.597504 30.352574 15.975039 36.74259l57.510141 23.962559-59.107645 25.560062c-14.377535 6.390016-19.170047 22.365055-14.377535 36.74259 4.792512 9.585023 14.377535 15.975039 23.962559 15.975039 3.195008 0 7.98752 0 11.182527-3.195008l113.422777-52.717629c9.585023-4.792512 15.975039-14.377535 15.975039-25.560062 1.597504-11.182527-4.792512-20.767551-14.377535-23.962559z m-261.99064-110.227769c-14.377535-4.792512-28.75507 3.195008-33.547582 17.572543L447.301092 707.694228c-4.792512 14.377535 3.195008 30.352574 17.572543 35.145086 1.597504 1.597504 4.792512 1.597504 7.987519 1.597503 11.182527 0 22.365055-7.98752 25.560063-19.170046L557.528861 543.151326c4.792512-14.377535-3.195008-30.352574-17.572543-35.145086z m-178.920437 76.680187c-6.390016-14.377535-20.767551-20.767551-35.145085-15.975039l-115.020281 47.925117c-9.585023 4.792512-15.975039 14.377535-17.572543 25.560063 0 11.182527 6.390016 20.767551 15.975039 25.560062l113.422777 52.717629c3.195008 1.597504 6.390016 3.195008 11.182527 3.195008 14.377535 0 27.157566-11.182527 27.157566-27.157567 0-11.182527-6.390016-20.767551-15.975039-25.560062L287.550702 645.391576l55.912637-23.962559c14.377535-4.792512 22.365055-20.767551 17.572542-36.74259z" fill="#334A66" p-id="3733"></path><path d="M835.49454 185.310452c30.352574 0 54.315133 23.962559 54.315132 54.315133v544.74883c0 30.352574-23.962559 54.315133-54.315132 54.315133H188.50546c-30.352574 0-54.315133-23.962559-54.315132-54.315133V239.625585c0-30.352574 23.962559-54.315133 54.315132-54.315133h646.98908m0-54.315132H188.50546C127.800312 130.99532 79.875195 180.517941 79.875195 239.625585v544.74883c0 59.107644 47.925117 108.630265 107.032761 108.630265h648.586584c28.75507 0 55.912637-11.182527 75.082683-31.950078 20.767551-20.767551 31.950078-47.925117 31.950078-76.680187V239.625585c0-28.75507-11.182527-55.912637-31.950078-76.680187-20.767551-19.170047-47.925117-31.950078-75.082683-31.950078z" fill="#334A66" p-id="3734"></path><path d="M942.527301 369.023401H79.875195v49.522621h862.652106z" fill="#334A66" p-id="3735"></path><path d="M193.297972 274.770671c0 23.962559 19.170047 43.132605 43.132605 43.132605 23.962559 0 43.132605-19.170047 43.132606-43.132605s-19.170047-43.132605-43.132606-43.132605c-7.98752 0-15.975039 1.597504-22.365054 6.390015-12.780031 6.390016-22.365055 22.365055-20.767551 36.74259zM317.903276 274.770671c0 23.962559 19.170047 43.132605 43.132605 43.132605 23.962559 0 43.132605-19.170047 43.132606-43.132605 0-23.962559-19.170047-43.132605-43.132606-43.132605-7.98752 0-15.975039 1.597504-22.365054 6.390015-12.780031 6.390016-20.767551 22.365055-20.767551 36.74259zM442.50858 274.770671c0 23.962559 19.170047 43.132605 43.132606 43.132605s43.132605-19.170047 43.132605-43.132605-19.170047-43.132605-43.132605-43.132605c-23.962559 0-43.132605 19.170047-43.132606 43.132605z" fill="#0097FF" p-id="3736"></path></svg>