<?xml version="1.0" standalone="no"?><!DOCTYPE svg PUBLIC "-//W3C//DTD SVG 1.1//EN" "http://www.w3.org/Graphics/SVG/1.1/DTD/svg11.dtd"><svg t="1714711889264" class="icon" viewBox="0 0 1024 1024" version="1.1" xmlns="http://www.w3.org/2000/svg" p-id="14604" xmlns:xlink="http://www.w3.org/1999/xlink" width="200" height="200"><path d="M759.498419 489.059225V446.987907c0-15.772775-11.34338-26.290605-28.338605-26.290605H226.756465c-17.003163 0-28.338605 10.517829-28.338605 26.290605v178.763411c0 110.401488 119.014202 199.783194 266.374946 199.783194h28.338605c147.344868 0 260.691349-89.381705 266.367008-199.791132 5.667721-21.027721 0-31.54555 0-136.692093z" fill="#F5CB2B" p-id="14605"></path><path d="M753.100403 958.511628H123.126078c-14.53445 0-29.076837-14.53445-29.076838-29.076837 0-14.542388 14.542388-29.076837 29.076838-29.076838h629.974325c14.53445 0 29.076837 14.53445 29.076837 29.076838 0 14.542388-14.542388 29.076837-29.076837 29.076837z m67.845954-344.064h-72.688124V372.148589h72.688124c67.845953 0 121.149519 53.303566 121.149519 121.14952s-53.303566 121.149519-121.149519 121.149519z m-14.53445-58.153675h9.684341c33.926946 0 63.003783-29.076837 63.003783-62.995844s-29.076837-62.995845-63.003783-62.995845h-9.684341V556.293953z" p-id="14606"></path><path d="M811.484279 547.419287V280.369612H72.061023v267.049675c0 205.490605 164.475039 323.996775 369.671938 323.996775 205.276279 0 369.751318-118.514109 369.751318-323.996775z m-63.503876-203.545799v203.545799c0 168.047132-138.35907 260.492899-306.247442 260.492899-167.808992 0-306.168062-92.445767-306.168062-260.492899V343.873488h612.415504z" p-id="14607"></path><path d="M302.429271 226.772341h-9.692279c-14.542388 0-24.226729-9.692279-24.226728-24.226729V86.238264c0-9.692279 9.684341-24.234667 24.226728-24.234667h9.684341c14.542388 0 24.234667 9.692279 24.234667 24.234667v111.45724c4.842171 19.384558-9.684341 29.076837-24.226729 29.076837z m140.534078 0H433.255194c-14.526512 0-24.226729-9.692279-24.226729-24.226729V86.238264c0-9.692279 9.692279-24.234667 24.226729-24.234667h9.700217c14.526512 0 24.226729 9.692279 24.226729 24.234667v111.45724c4.842171 19.384558-9.692279 29.076837-24.226729 29.076837z m140.526139 0h-9.684341c-14.542388 0-24.234667-9.692279-24.234666-24.226729V86.238264c0-14.542388 9.684341-24.234667 24.234666-24.234667h9.684341c14.542388 0 24.234667 9.692279 24.234667 24.234667v111.45724c0 19.384558-9.684341 29.076837-24.234667 29.076837z" fill="#000006" p-id="14608"></path></svg>