<?xml version="1.0" standalone="no"?><!DOCTYPE svg PUBLIC "-//W3C//DTD SVG 1.1//EN" "http://www.w3.org/Graphics/SVG/1.1/DTD/svg11.dtd"><svg t="1714711761991" class="icon" viewBox="0 0 1024 1024" version="1.1" xmlns="http://www.w3.org/2000/svg" p-id="9224" xmlns:xlink="http://www.w3.org/1999/xlink" width="200" height="200"><path d="M990.3104 433.3056a271.616 271.616 0 0 0-237.5936-139.52h-7.168a255.6416 255.6416 0 0 0-263.68-187.008 255.8976 255.8976 0 0 0-236.0832 220.7488c-136.448 5.12-244.2496 116.5056-245.7856 252.928v3.072c0.512 136.448 107.3152 312.7552 243.7376 319.3856h194.7136v-158.4128h-119.5776c-21.4784 0-33.2288-25.0368-19.9424-41.3952l204.928-255.488a25.5232 25.5232 0 0 1 39.8336 0l204.928 255.488c13.2864 16.8704 1.536 41.9072-19.9424 41.9072h-119.552v158.4128h132.864a272.4352 272.4352 0 0 0 243.2-129.28c51.1232-85.3504 53.1712-254.464 5.12-340.8384z" fill="#409EFF" p-id="9225"></path><path d="M533.7344 488.3712a12.8 12.8 0 0 0-20.0704 0l-168.2432 212.5056a12.8 12.8 0 0 0 10.0608 20.736h109.2352v191.6672h122.4448v-191.6416h104.7808a12.8 12.8 0 0 0 10.0352-20.736l-168.2432-212.5312z" fill="#00D929" p-id="9226"></path></svg>