<?xml version="1.0" standalone="no"?><!DOCTYPE svg PUBLIC "-//W3C//DTD SVG 1.1//EN" "http://www.w3.org/Graphics/SVG/1.1/DTD/svg11.dtd"><svg t="1714711853153" class="icon" viewBox="0 0 1024 1024" version="1.1" xmlns="http://www.w3.org/2000/svg" p-id="12448" xmlns:xlink="http://www.w3.org/1999/xlink" width="200" height="200"><path d="M505.088 513.1264m-450.816 0a450.816 450.816 0 1 0 901.632 0 450.816 450.816 0 1 0-901.632 0Z" fill="#C65EDB" p-id="12449"></path><path d="M444.7232 420.3008h118.7328V472.576H444.7232z" fill="#FFFFFF" p-id="12450"></path><path d="M382.3104 415.232v-6.4512c0-28.0576 22.8352-50.8928 50.8928-50.8928h141.7728c28.0576 0 50.8928 22.8352 50.8928 50.8928v6.4512h174.7456V335.2576c0-38.0416-30.8736-68.9152-68.9152-68.9152H278.1184c-38.0416 0-68.9152 30.8736-68.9152 68.9152V415.232h173.1072z" fill="#BD50D3" p-id="12451"></path><path d="M625.8688 477.6448v6.4512c0 28.0576-22.8352 50.8928-50.8928 50.8928H433.2032c-28.0576 0-50.8928-22.8352-50.8928-50.8928v-6.4512H209.2032v219.2896c0 38.0416 30.8736 68.9152 68.9152 68.9152h453.5296c38.0416 0 68.9152-30.8736 68.9152-68.9152V477.6448h-174.6944zM731.648 266.3424H278.1184c-38.0416 0-68.9152 30.8736-68.9152 68.9152V415.232h173.1072v-6.4512c0-28.0576 22.8352-50.8928 50.8928-50.8928h141.7728c28.0576 0 50.8928 22.8352 50.8928 50.8928v6.4512h163.3792a452.68992 452.68992 0 0 0 8.7552-98.6624c-8.192-28.9792-34.7648-50.2272-66.3552-50.2272z" fill="#FFFFFF" p-id="12452"></path></svg>