<?xml version="1.0" standalone="no"?><!DOCTYPE svg PUBLIC "-//W3C//DTD SVG 1.1//EN" "http://www.w3.org/Graphics/SVG/1.1/DTD/svg11.dtd"><svg t="1714573183383" class="icon" viewBox="0 0 1024 1024" version="1.1" xmlns="http://www.w3.org/2000/svg" p-id="2775" xmlns:xlink="http://www.w3.org/1999/xlink" width="200" height="200"><path d="M511.981066 0c18.903888 0 37.059498 6.143764 51.906926 17.289181l4.607823 3.741395 405.645937 200.853813 5.631783 6.183147a93.337949 93.337949 0 0 1 0 126.025922l-5.631783 6.22253-405.645937 200.735664-4.568439 3.820161a86.642821 86.642821 0 0 1-43.872775 16.934733l-8.073535 0.354448c-18.903888 0-37.059498-6.143764-51.906927-17.328564l-4.647206-3.780778L49.82038 360.355371l-5.631784-6.183147a93.337949 93.337949 0 0 1 0-126.065305l5.631784-6.183147 405.606553-200.853813 4.607823-3.741395c12.760125-9.53071 27.962001-15.398792 43.872774-16.934733L511.981066 0z m469.919157 486.578209a44.778585 44.778585 0 0 1-11.893697 58.286988l-4.371524 2.874967-395.878928 229.209646-5.395484 4.804738a84.437368 84.437368 0 0 1-44.187839 17.879928l-8.152302 0.393831c-19.140187 0-37.492712-6.576978-52.300758-18.352525l-5.474251-4.725972-395.800161-229.209646a44.778585 44.778585 0 0 1-18.706973-56.51475l2.362986-4.647205a44.739202 44.739202 0 0 1 61.122572-16.343987l407.457559 235.904773 1.339026 1.535941 1.339025-1.535941 407.418177-235.904773a44.739202 44.739202 0 0 1 61.161955 16.304603v0.039384z m0 223.93231a44.778585 44.778585 0 0 1-11.893697 58.286989l-4.371524 2.874966-395.878928 229.209646-5.395484 4.725972a84.437368 84.437368 0 0 1-44.187839 17.958694L511.981066 1023.960617c-19.140187 0-37.492712-6.576978-52.300758-18.352525l-5.474251-4.725972-395.800161-229.209646a44.778585 44.778585 0 0 1-18.706973-56.514749l2.362986-4.647206a44.739202 44.739202 0 0 1 61.122572-16.38337l407.457559 235.904773 1.339026 1.575324 1.339025-1.575324 407.418176-235.904773a44.739202 44.739202 0 0 1 61.161956 16.343987z" fill="#1866FF" p-id="2776"></path></svg>